<svg width="199" height="50" viewBox="0 0 199 50" fill="none" xmlns="http://www.w3.org/2000/svg">
<path d="M0 14.5274C0 9.44236 0 6.89982 0.989622 4.95757C1.86012 3.24913 3.24913 1.86012 4.95757 0.989622C6.89982 0 9.44236 0 14.5274 0H184.473C189.558 0 192.1 0 194.042 0.989622C195.751 1.86012 197.14 3.24913 198.01 4.95757C199 6.89982 199 9.44236 199 14.5274V35.4726C199 40.5576 199 43.1002 198.01 45.0424C197.14 46.7509 195.751 48.1399 194.042 49.0104C192.1 50 189.558 50 184.473 50H14.5274C9.44235 50 6.89982 50 4.95757 49.0104C3.24913 48.1399 1.86012 46.7509 0.989622 45.0424C0 43.1002 0 40.5576 0 35.4726V14.5274Z" fill="#2E1115" fill-opacity="0.96"/>
</svg>
