<svg width="21" height="19" viewBox="0 0 21 19" fill="none" xmlns="http://www.w3.org/2000/svg">
<path fill-rule="evenodd" clip-rule="evenodd" d="M5.40401 0.781494H15.4598C16.0129 0.781494 16.4654 1.21874 16.4654 1.75315V3.69647C16.4654 4.23089 16.0129 4.66813 15.4598 4.66813H5.40401C4.85094 4.66813 4.39842 4.23089 4.39842 3.69647V1.75315C4.39842 1.21874 4.85094 0.781494 5.40401 0.781494ZM3.39284 5.63979H17.471C19.1403 5.63979 20.4877 6.94182 20.4877 8.55477V12.4414C20.4877 13.5102 19.5827 14.3847 18.4766 14.3847H16.4654V16.3281C16.4654 17.3969 15.5604 18.2714 14.4542 18.2714H6.40959C5.30345 18.2714 4.39843 17.3969 4.39843 16.3281V14.3847H2.38726C1.28112 14.3847 0.376099 13.5102 0.376099 12.4414V8.55477C0.376099 6.94182 1.72358 5.63979 3.39284 5.63979ZM7.41517 16.3281H13.4487C14.0017 16.3281 14.4542 15.8908 14.4542 15.3564V11.4698H6.40959V15.3564C6.40959 15.8908 6.8621 16.3281 7.41517 16.3281ZM17.471 9.52643C16.9179 9.52643 16.4654 9.08919 16.4654 8.55477C16.4654 8.02036 16.9179 7.58311 17.471 7.58311C18.0241 7.58311 18.4766 8.02036 18.4766 8.55477C18.4766 9.08919 18.0241 9.52643 17.471 9.52643Z" fill="#64495C"/>
</svg>
