<svg width="19" height="19" viewBox="0 0 19 19" fill="none" xmlns="http://www.w3.org/2000/svg">
<path fill-rule="evenodd" clip-rule="evenodd" d="M9.69991 0.967773C7.242 0.967773 6.9338 0.977783 5.96849 1.02039C5.0052 1.06287 4.34731 1.21069 3.77165 1.42688C3.17651 1.65039 2.6718 1.94934 2.16864 2.43555C1.66551 2.92175 1.35605 3.40942 1.1248 3.9845C0.901061 4.54065 0.748057 5.17639 0.704121 6.10718C0.660077 7.03992 0.649658 7.33777 0.649658 9.71277C0.649658 12.0876 0.660077 12.3855 0.704121 13.3182C0.748057 14.249 0.901061 14.8848 1.1248 15.441C1.35605 16.016 1.66551 16.5037 2.16864 16.9899C2.6718 17.4761 3.17651 17.7751 3.77165 17.9985C4.34731 18.2147 5.0052 18.3625 5.96849 18.405C6.9338 18.4476 7.242 18.4576 9.69991 18.4576C12.1578 18.4576 12.466 18.4476 13.4313 18.405C14.3946 18.3625 15.0525 18.2147 15.6281 17.9985C16.2233 17.7751 16.728 17.4761 17.2311 16.9899C17.7343 16.5037 18.0437 16.016 18.275 15.441C18.4987 14.8848 18.6517 14.249 18.6957 13.3182C18.7397 12.3855 18.7501 12.0876 18.7501 9.71277C18.7501 7.33777 18.7397 7.03992 18.6957 6.10718C18.6517 5.17639 18.4987 4.54065 18.275 3.9845C18.0437 3.40942 17.7343 2.92175 17.2311 2.43555C16.728 1.94934 16.2233 1.65039 15.6281 1.42688C15.0525 1.21069 14.3946 1.06287 13.4313 1.02039C12.466 0.977783 12.1578 0.967773 9.69991 0.967773ZM9.69973 2.54346C12.1162 2.54346 12.4025 2.55237 13.3568 2.59448C14.2392 2.6333 14.7184 2.77576 15.0373 2.89551C15.4597 3.0542 15.7612 3.24365 16.0779 3.54968C16.3946 3.85571 16.5907 4.14697 16.7549 4.55518C16.8788 4.8634 17.0263 5.32642 17.0665 6.17908C17.1101 7.1012 17.1193 7.37769 17.1193 9.71277C17.1193 12.0477 17.1101 12.3243 17.0665 13.2465C17.0263 14.0991 16.8788 14.5621 16.7549 14.8702C16.5907 15.2784 16.3946 15.5697 16.0779 15.8757C15.7612 16.1818 15.4597 16.3713 15.0373 16.5299C14.7184 16.6497 14.2392 16.7921 13.3568 16.8311C12.4026 16.873 12.1164 16.882 9.69973 16.882C7.28303 16.882 6.99685 16.873 6.04264 16.8311C5.16026 16.7921 4.68105 16.6497 4.36215 16.5299C3.93971 16.3713 3.63822 16.1818 3.32154 15.8757C3.00487 15.5697 2.80872 15.2784 2.64454 14.8702C2.5206 14.5621 2.37316 14.0991 2.33293 13.2465C2.28938 12.3243 2.28015 12.0477 2.28015 9.71277C2.28015 7.37769 2.28938 7.1012 2.33293 6.17908C2.37316 5.32642 2.5206 4.8634 2.64454 4.55518C2.80872 4.14697 3.00483 3.85571 3.32154 3.54968C3.63822 3.24365 3.93971 3.0542 4.36215 2.89551C4.68105 2.77576 5.16026 2.6333 6.04264 2.59448C6.99696 2.55237 7.28321 2.54346 9.69973 2.54346ZM5.05249 9.71277C5.05249 7.23267 7.13319 5.22217 9.69992 5.22217C12.2666 5.22217 14.3473 7.23267 14.3473 9.71277C14.3473 12.193 12.2666 14.2035 9.69992 14.2035C7.13319 14.2035 5.05249 12.193 5.05249 9.71277ZM9.69999 12.6277C8.03386 12.6277 6.68323 11.3226 6.68323 9.71277C6.68323 8.10278 8.03386 6.79773 9.69999 6.79773C11.3661 6.79773 12.7167 8.10278 12.7167 9.71277C12.7167 11.3226 11.3661 12.6277 9.69999 12.6277ZM14.5308 6.09399C15.1306 6.09399 15.6169 5.62427 15.6169 5.04468C15.6169 4.46509 15.1306 3.99524 14.5308 3.99524C13.9311 3.99524 13.4448 4.46509 13.4448 5.04468C13.4448 5.62427 13.9311 6.09399 14.5308 6.09399Z" fill="#64495C"/>
</svg>
