<svg width="19" height="19" viewBox="0 0 19 19" fill="none" xmlns="http://www.w3.org/2000/svg">
<path d="M9.23619 0.967529C4.23826 0.967529 0.185425 4.88262 0.185425 9.71298C0.185425 13.2928 2.41406 16.3698 5.60375 17.7221C5.57821 17.1123 5.59949 16.378 5.7602 15.7137C5.93475 15.0041 6.92454 10.9491 6.92454 10.9491C6.92454 10.9491 6.63612 10.3907 6.63612 9.56489C6.63612 8.26912 7.41412 7.3014 8.38156 7.3014C9.20426 7.3014 9.60231 7.8989 9.60231 8.61466C9.60231 9.41372 9.07442 10.6097 8.80302 11.7173C8.57633 12.646 9.28409 13.4018 10.2313 13.4018C11.9459 13.4018 13.1006 11.2741 13.1006 8.75246C13.1006 6.83657 11.765 5.40196 9.33517 5.40196C6.59035 5.40196 4.88003 7.37956 4.88003 9.58855C4.88003 10.3516 5.11205 10.8884 5.47604 11.3039C5.6442 11.4962 5.66654 11.5723 5.60588 11.7924C5.56331 11.9518 5.46326 12.3405 5.42176 12.4938C5.36109 12.7149 5.17591 12.7951 4.96943 12.7128C3.70398 12.214 3.11543 10.8761 3.11543 9.37156C3.11543 6.88799 5.2834 3.9077 9.58315 3.9077C13.0389 3.9077 15.3133 6.32546 15.3133 8.91803C15.3133 12.3488 13.3401 14.9115 10.4293 14.9115C9.45331 14.9115 8.53376 14.4014 8.21873 13.8224C8.21873 13.8224 7.69296 15.8371 7.58228 16.2258C7.3907 16.8994 7.01501 17.574 6.67124 18.0985C7.48543 18.3309 8.34538 18.4574 9.23619 18.4574C14.2341 18.4574 18.2859 14.5423 18.2859 9.71298C18.2859 4.88262 14.2341 0.967529 9.23619 0.967529Z" fill="#64495C"/>
</svg>
