<svg width="19" height="19" viewBox="0 0 19 19" fill="none" xmlns="http://www.w3.org/2000/svg">
<path fill-rule="evenodd" clip-rule="evenodd" d="M18.554 18.4576H15.1065C15.1065 10.6503 8.53352 4.29895 0.453684 4.29895V0.967773C10.434 0.967773 18.554 8.81384 18.554 18.4576ZM0.453735 15.9591C0.453735 14.5793 1.61151 13.4606 3.03949 13.4606C4.46747 13.4606 5.62524 14.5793 5.62524 15.9591C5.62524 17.339 4.46747 18.4576 3.03949 18.4576C1.61151 18.4576 0.453735 17.339 0.453735 15.9591ZM9.0731 18.4576H12.5206C12.5206 12.0282 7.10728 6.79749 0.453491 6.79749V10.1293C5.20611 10.1293 9.0731 13.8652 9.0731 18.4576Z" fill="#64495C"/>
</svg>
