<svg width="19" height="14" viewBox="0 0 19 14" fill="none" xmlns="http://www.w3.org/2000/svg">
<path fill-rule="evenodd" clip-rule="evenodd" d="M17.5816 1.82483C18.124 2.36987 18.3011 3.6073 18.3011 3.6073C18.3011 3.6073 18.4821 5.06091 18.4821 6.51392V7.87659C18.4821 9.3302 18.3011 10.7832 18.3011 10.7832C18.3011 10.7832 18.124 12.0208 17.5816 12.5657C16.9615 13.2103 16.2739 13.2769 15.8852 13.3146C15.8424 13.3187 15.8032 13.3225 15.7681 13.3267C13.2352 13.5085 9.43183 13.5142 9.43183 13.5142C9.43183 13.5142 4.7257 13.4714 3.27767 13.3334C3.20909 13.3207 3.12597 13.3108 3.03184 13.2996C2.57317 13.245 1.85316 13.1594 1.28152 12.5657C0.739076 12.0208 0.562596 10.7832 0.562596 10.7832C0.562596 10.7832 0.381592 9.3302 0.381592 7.87659V6.51392C0.381592 5.06091 0.562596 3.6073 0.562596 3.6073C0.562596 3.6073 0.739076 2.36987 1.28152 1.82483C1.90308 1.1792 2.5914 1.1134 2.98012 1.07617C3.02227 1.07214 3.06089 1.06848 3.09553 1.06445C5.62847 0.882568 9.42787 0.882568 9.42787 0.882568H9.43579C9.43579 0.882568 13.2352 0.882568 15.7681 1.06445C15.8028 1.06848 15.8414 1.07214 15.8836 1.07617C16.272 1.11353 16.9606 1.17932 17.5816 1.82483ZM7.56238 4.48169L7.56294 9.52771L12.4529 7.01343L7.56238 4.48169Z" fill="#64495C"/>
</svg>
