<svg width="19" height="17" viewBox="0 0 19 17" fill="none" xmlns="http://www.w3.org/2000/svg">
<path fill-rule="evenodd" clip-rule="evenodd" d="M2.24436 4.60388H2.21882C0.941743 4.60388 0.11377 3.79651 0.11377 2.77319C0.11377 1.72986 0.96622 0.939453 2.26884 0.939453C3.5704 0.939453 4.3707 1.72791 4.39624 2.77014C4.39624 3.79358 3.5704 4.60388 2.24436 4.60388ZM18.2142 16.4861H14.2137V11.0209C14.2137 9.59033 13.588 8.61377 12.2119 8.61377C11.1594 8.61377 10.574 9.27271 10.3016 9.90784C10.2116 10.1086 10.2133 10.3788 10.2149 10.6572L10.2154 10.771V16.4861H6.2522C6.2522 16.4861 6.30328 6.80493 6.2522 5.92493H10.2154V7.5824C10.4495 6.85767 11.716 5.82336 13.7369 5.82336C16.2443 5.82336 18.2142 7.34253 18.2142 10.6136V16.4861ZM4.09824 5.92493H0.570312V16.4861H4.09824V5.92493Z" fill="#64495C"/>
</svg>
