<svg width="15" height="20" viewBox="0 0 15 20" fill="none" xmlns="http://www.w3.org/2000/svg">
<path fill-rule="evenodd" clip-rule="evenodd" d="M0.0308838 7.74498C0.0308838 3.98465 3.17835 0.943359 7.06996 0.943359C10.9616 0.943359 14.109 3.98465 14.109 7.74498C14.109 11.7968 9.66436 17.3838 7.84425 19.5118C7.44202 19.9782 6.70795 19.9782 6.30571 19.5118C4.47555 17.3838 0.0308838 11.7968 0.0308838 7.74498ZM4.556 7.74498C4.556 9.08587 5.68225 10.1741 7.06996 10.1741C8.45766 10.1741 9.58391 9.08587 9.58391 7.74498C9.58391 6.40409 8.45766 5.31583 7.06996 5.31583C5.68225 5.31583 4.556 6.40409 4.556 7.74498Z" fill="#64495C"/>
</svg>
