<svg width="19" height="19" viewBox="0 0 19 19" fill="none" xmlns="http://www.w3.org/2000/svg">
<path d="M10.2458 18.4574H1.57677C1.02487 18.4574 0.577759 18.0251 0.577759 17.492V1.93283C0.577759 1.39962 1.02494 0.967529 1.57677 0.967529H17.6793C18.231 0.967529 18.6782 1.39962 18.6782 1.93283V17.492C18.6782 18.0252 18.2309 18.4574 17.6793 18.4574H13.0668V11.6844H15.4196L15.7719 9.04479H13.0668V7.35958C13.0668 6.59537 13.2864 6.07458 14.4206 6.07458L15.8671 6.07397V3.71311C15.6169 3.68094 14.7583 3.60907 13.7593 3.60907C11.6737 3.60907 10.2458 4.83918 10.2458 7.09817V9.04479H7.887V11.6844H10.2458V18.4574Z" fill="#64495C"/>
</svg>
