<svg width="20" height="12" viewBox="0 0 20 12" fill="none" xmlns="http://www.w3.org/2000/svg">
<path fill-rule="evenodd" clip-rule="evenodd" d="M9.77429 7.25391C8.87496 7.25391 6.66625 7.25659 6.66625 7.25659V5.14014H12.1875C12.572 7.70105 11.412 11.5425 6.66625 11.5425C3.49121 11.5425 0.917358 9.14978 0.917358 6.19836C0.917358 3.24683 3.49121 0.854248 6.66625 0.854248C8.15607 0.854248 9.51349 1.38098 10.5348 2.24524C9.74337 2.93994 9.48965 3.20471 9.27407 3.42981C9.16193 3.54688 9.06011 3.6532 8.8983 3.80359C8.30753 3.34949 7.66348 3.02368 6.66625 3.02368C4.7801 3.02368 3.30799 4.44507 3.30799 6.19836C3.30799 7.95178 4.7801 9.37317 6.66625 9.37317C8.53003 9.37317 9.28729 8.62598 9.77429 7.25391ZM17.0259 3.39392V5.24585H19.0181V6.5686H17.0259V8.47351H15.6029V6.5686H13.5538V5.24585H15.6029V3.39392H17.0259Z" fill="#64495C"/>
</svg>
