<svg width="19" height="16" viewBox="0 0 19 16" fill="none" xmlns="http://www.w3.org/2000/svg">
<path d="M18.9464 2.6363C18.2813 2.92895 17.5653 3.12686 16.8141 3.21529C17.5812 2.76052 18.1698 2.0394 18.4471 1.18038C17.7289 1.60147 16.9353 1.90781 16.0874 2.07204C15.4117 1.35724 14.446 0.910889 13.3772 0.910889C11.3278 0.910889 9.66511 2.55839 9.66511 4.59014C9.66511 4.87859 9.69698 5.15861 9.76072 5.42811C6.67439 5.27441 3.93866 3.81113 2.10598 1.58252C1.78619 2.12783 1.60345 2.76052 1.60345 3.43426C1.60345 4.71015 2.25897 5.83656 3.25552 6.49662C2.64781 6.47872 2.07411 6.31134 1.57264 6.03763V6.0829C1.57264 7.86621 2.85286 9.3537 4.55273 9.69057C4.24145 9.77689 3.91316 9.82005 3.57424 9.82005C3.3352 9.82005 3.10147 9.79795 2.87517 9.75478C3.34795 11.216 4.71847 12.2803 6.34398 12.3087C5.07332 13.2961 3.47119 13.8846 1.73201 13.8846C1.4324 13.8846 1.13599 13.8678 0.845947 13.8341C2.48951 14.8763 4.44224 15.4858 6.5384 15.4858C13.3698 15.4858 17.1042 9.88006 17.1042 5.01755C17.1042 4.85753 17.101 4.69752 17.0946 4.54066C17.8202 4.02167 18.4503 3.37425 18.9464 2.6363Z" fill="#64495C"/>
</svg>
